<svg id="visual" viewBox="0 0 900 900" width="900" height="900" xmlns="http://www.w3.org/2000/svg" xmlns:xlink="http://www.w3.org/1999/xlink" version="1.1"><path d="M197 0L191.3 18.8C185.7 37.7 174.3 75.3 180.3 112.8C186.3 150.3 209.7 187.7 213.7 225.2C217.7 262.7 202.3 300.3 182 337.8C161.7 375.3 136.3 412.7 138.5 450.2C140.7 487.7 170.3 525.3 191.8 562.8C213.3 600.3 226.7 637.7 213.3 675.2C200 712.7 160 750.3 154.2 787.8C148.3 825.3 176.7 862.7 190.8 881.3L205 900L0 900L0 881.3C0 862.7 0 825.3 0 787.8C0 750.3 0 712.7 0 675.2C0 637.7 0 600.3 0 562.8C0 525.3 0 487.7 0 450.2C0 412.7 0 375.3 0 337.8C0 300.3 0 262.7 0 225.2C0 187.7 0 150.3 0 112.8C0 75.3 0 37.7 0 18.8L0 0Z" fill="#ffaa22" stroke-linecap="round" stroke-linejoin="miter"></path></svg>